<svg xmlns="http://www.w3.org/2000/svg" viewBox="0 0 1080 1080"><defs><filter id="s" x="-20%" y="-20%" width="140%" height="140%"><feDropShadow dx="0" dy="6" stdDeviation="14" flood-color="#000" flood-opacity="0.18"/></filter><filter id="f" x="-50%" y="-50%" width="200%" height="200%"><feDropShadow dx="-10" dy="14" stdDeviation="18" flood-color="#000" flood-opacity="0.22"/></filter></defs><path d="M250 110H630L865 340V935Q865 970 830 970H250Q215 970 215 935V145Q215 110 250 110Z" fill="#fff" filter="url(#s)"/><path d="M636 128V308Q636 344 672 344H850Z" fill="#fff" filter="url(#f)"/><rect x="440" y="430" width="40" height="40" fill="#858585"/><rect x="440" y="470" width="40" height="40" fill="#858585"/><rect x="440" y="510" width="40" height="40" fill="#858585"/><rect x="440" y="550" width="40" height="40" fill="#858585"/><rect x="440" y="590" width="40" height="40" fill="#858585"/><rect x="440" y="630" width="40" height="40" fill="#858585"/><rect x="440" y="670" width="40" height="40" fill="#858585"/><rect x="480" y="470" width="40" height="40" fill="#858585"/><rect x="480" y="510" width="40" height="40" fill="#858585"/><rect x="480" y="550" width="40" height="40" fill="#858585"/><rect x="480" y="590" width="40" height="40" fill="#858585"/><rect x="480" y="630" width="40" height="40" fill="#858585"/><rect x="520" y="510" width="40" height="40" fill="#858585"/><rect x="520" y="550" width="40" height="40" fill="#858585"/><rect x="520" y="590" width="40" height="40" fill="#858585"/><rect x="560" y="550" width="40" height="40" fill="#858585"/></svg>